# xmcd CD database file
#
# Track frame offsets:
#	150
#	15432
#	37897
#	57025
#	70680
#	89797
#	107670
#	122495
#	151575
#	166200
#	184680
#	206830
#	218102
#
# Disc length: 3301 seconds
#
# Revision: 2
# Processed by: cddbd v1.4PL0 Copyright (c) Steve Scherf et al.
# Submitted via: CDex 1.50
#
DISCID=a10ce30d
DTITLE=Louis Armstrong - Louis Armstrong - Story
DYEAR=1900
DGENRE=Jazz
TTITLE0=What A Wonderful World
TTITLE1=Summertime
TTITLE2=I Only Have Eyes For You
TTITLE3=Tin Roof Blues
TTITLE4=Top Hat, White Tie And Tails
TTITLE5=I Gotta Right to Sing the Blues
TTITLE6=Let's Fall In Love
TTITLE7=You Go to My Head
TTITLE8=East Of The Sun( And West Of The Moon)
TTITLE9=We'll Be Together Again
TTITLE10=Nobody Knows The Trouble I've Seen
TTITLE11=Uncel Satchmo's Lullaby
TTITLE12=It Ain't Necessarily So
EXTD=
EXTT0=
EXTT1=
EXTT2=
EXTT3=
EXTT4=
EXTT5=
EXTT6=
EXTT7=
EXTT8=
EXTT9=
EXTT10=
EXTT11=
EXTT12=
PLAYORDER=
